<svg xmlns="http://www.w3.org/2000/svg" width="300" height="200" viewBox="0 0 300 200" role="img" aria-label="Pegadas">
  <g fill="#111827" opacity="0.82">
    <g transform="translate(34 151) rotate(-17)">
      <ellipse cx="0" cy="14" rx="8" ry="16"/>
      <circle cx="-8" cy="-3" r="3.2"/>
      <circle cx="-2" cy="-6" r="3.5"/>
      <circle cx="5" cy="-5" r="3"/>
      <circle cx="10" cy="0" r="2.6"/>
    </g>
    <g transform="translate(67 130) rotate(16)">
      <ellipse cx="0" cy="14" rx="8" ry="16"/>
      <circle cx="-10" cy="0" r="2.6"/>
      <circle cx="-5" cy="-5" r="3"/>
      <circle cx="2" cy="-6" r="3.5"/>
      <circle cx="8" cy="-3" r="3.2"/>
    </g>
    <g transform="translate(103 108) rotate(-17)">
      <ellipse cx="0" cy="14" rx="8" ry="16"/>
      <circle cx="-8" cy="-3" r="3.2"/>
      <circle cx="-2" cy="-6" r="3.5"/>
      <circle cx="5" cy="-5" r="3"/>
      <circle cx="10" cy="0" r="2.6"/>
    </g>
    <g transform="translate(137 87) rotate(16)">
      <ellipse cx="0" cy="14" rx="8" ry="16"/>
      <circle cx="-10" cy="0" r="2.6"/>
      <circle cx="-5" cy="-5" r="3"/>
      <circle cx="2" cy="-6" r="3.5"/>
      <circle cx="8" cy="-3" r="3.2"/>
    </g>
    <g transform="translate(174 65) rotate(-17)">
      <ellipse cx="0" cy="14" rx="8" ry="16"/>
      <circle cx="-8" cy="-3" r="3.2"/>
      <circle cx="-2" cy="-6" r="3.5"/>
      <circle cx="5" cy="-5" r="3"/>
      <circle cx="10" cy="0" r="2.6"/>
    </g>
    <g transform="translate(209 47) rotate(16)">
      <ellipse cx="0" cy="14" rx="8" ry="16"/>
      <circle cx="-10" cy="0" r="2.6"/>
      <circle cx="-5" cy="-5" r="3"/>
      <circle cx="2" cy="-6" r="3.5"/>
      <circle cx="8" cy="-3" r="3.2"/>
    </g>
    <g transform="translate(246 34) rotate(-17)">
      <ellipse cx="0" cy="14" rx="8" ry="16"/>
      <circle cx="-8" cy="-3" r="3.2"/>
      <circle cx="-2" cy="-6" r="3.5"/>
      <circle cx="5" cy="-5" r="3"/>
      <circle cx="10" cy="0" r="2.6"/>
    </g>
  </g>
</svg>
